<svg width="40" height="40" viewBox="0 0 40 40" fill="none" xmlns="http://www.w3.org/2000/svg">
<rect width="40" height="40" rx="5.28125" fill="black"/>
<path fill-rule="evenodd" clip-rule="evenodd" d="M4.87891 9.45968C4.87891 8.07751 5.99938 6.95703 7.38156 6.95703H11.4961H15.0592H27.424C31.3245 6.95703 34.4865 10.119 34.4865 14.0196C34.4865 15.7003 33.8995 17.2438 32.9192 18.4564C34.2774 19.7609 35.1228 21.5953 35.1228 23.6272C35.1228 27.5863 31.9133 30.7958 27.9542 30.7958H17.3216L8.78135 36.501L11.1555 11.9623H7.38156C5.99938 11.9623 4.87891 10.8419 4.87891 9.45968ZM22.2914 12.0782C18.5251 12.0782 15.4719 15.1313 15.4719 18.8976C15.4719 22.6639 18.5251 25.717 22.2914 25.717H27.8693C29.0235 25.717 29.9592 24.7814 29.9592 23.6272C29.9592 22.473 29.0235 21.5374 27.8693 21.5374H22.2914C20.8335 21.5374 19.6516 20.3555 19.6516 18.8976C19.6516 17.4397 20.8335 16.2579 22.2914 16.2579H27.3002C28.4544 16.2579 29.39 15.3222 29.39 14.168C29.39 13.0138 28.4544 12.0782 27.3002 12.0782H22.2914Z" fill="url(#paint0_linear_566_19760)"/>
<defs>
<linearGradient id="paint0_linear_566_19760" x1="20.0009" y1="6.95703" x2="20.0009" y2="36.501" gradientUnits="userSpaceOnUse">
<stop stop-color="#18EE38"/>
<stop offset="1" stop-color="#CCF221"/>
</linearGradient>
</defs>
</svg>
