<svg viewBox="0 0 17 24" fill="none" xmlns="http://www.w3.org/2000/svg">
<path fill-rule="evenodd" clip-rule="evenodd" d="M0.0205574 8C0.0205574 5.87827 0.863412 3.84344 2.3637 2.34315C3.86399 0.842855 5.89883 0 8.02056 0C10.1423 0 12.1771 0.842855 13.6774 2.34315C15.1777 3.84344 16.0206 5.87827 16.0206 8C16.0206 10.1217 15.1777 12.1566 13.6774 13.6569C12.1771 15.1571 10.1423 16 8.02056 16C5.89883 16 3.86399 15.1571 2.3637 13.6569C0.863412 12.1566 0.0205574 10.1217 0.0205574 8Z" fill="url(#paint0_linear_626_736)"/>
<path fill-rule="evenodd" clip-rule="evenodd" d="M1.50056 14.6787L0.215224 18.532C-0.93011 21.9693 2.71789 25.036 5.90722 23.3187L7.38856 22.5213C7.5828 22.4168 7.79996 22.362 8.02056 22.362C8.24116 22.362 8.45831 22.4168 8.65256 22.5213L10.1352 23.32C13.3246 25.0373 16.9712 21.9693 15.8259 18.5333L14.5419 14.6773C12.8001 16.3829 10.4584 17.3367 8.02056 17.3333C5.58339 17.3367 3.24224 16.3835 1.50056 14.6787Z" fill="url(#paint1_linear_626_736)"/>
<defs>
<linearGradient id="paint0_linear_626_736" x1="8.02059" y1="0" x2="8.02059" y2="23.8116" gradientUnits="userSpaceOnUse">
<stop stop-color="#18EE38"/>
<stop offset="1" stop-color="#CCF221"/>
</linearGradient>
<linearGradient id="paint1_linear_626_736" x1="8.02059" y1="0" x2="8.02059" y2="23.8116" gradientUnits="userSpaceOnUse">
<stop stop-color="#18EE38"/>
<stop offset="1" stop-color="#CCF221"/>
</linearGradient>
</defs>
</svg>
