<svg viewBox="0 0 32 32" fill="none" xmlns="http://www.w3.org/2000/svg">
<path d="M18.3988 16.8003H13.5988C13.1572 16.8003 12.7988 17.1587 12.7988 17.6003L12.7988 28.0003C12.7988 28.4419 13.1572 28.8003 13.5988 28.8003H18.3988C18.8404 28.8003 19.1988 28.4419 19.1988 28.0003L19.1988 17.6003C19.1988 17.1587 18.8404 16.8003 18.3988 16.8003Z" fill="url(#paint0_linear_44_4116)"/>
<path d="M8.79922 21.6001H3.99922C3.55762 21.6001 3.19922 21.9585 3.19922 22.4001L3.19922 28.0001C3.19922 28.4417 3.55762 28.8001 3.99922 28.8001H8.79922C9.24082 28.8001 9.59922 28.4417 9.59922 28.0001L9.59922 22.4001C9.59922 21.9585 9.24082 21.6001 8.79922 21.6001Z" fill="url(#paint1_linear_44_4116)"/>
<path d="M27.9984 12L23.1984 12C22.7568 12 22.3984 12.3584 22.3984 12.8L22.3984 28C22.3984 28.4416 22.7568 28.8 23.1984 28.8H27.9984C28.44 28.8 28.7984 28.4416 28.7984 28L28.7984 12.8C28.7984 12.3584 28.44 12 27.9984 12Z" fill="url(#paint2_linear_44_4116)"/>
<path d="M15.9992 12.8002C16.204 12.8002 16.4088 12.7218 16.5648 12.5658L23.1992 5.9314V9.6002H24.7992V4.0002C24.7992 3.5586 24.4408 3.2002 23.9992 3.2002L18.3992 3.2002V4.8002L22.068 4.8002L15.9992 10.869L12.5648 7.4346C12.252 7.1218 11.7464 7.1218 11.4336 7.4346L7.43359 11.4346L8.56479 12.5658L11.9992 9.1314L15.4336 12.5658C15.5896 12.7218 15.7944 12.8002 15.9992 12.8002Z" fill="url(#paint3_linear_44_4116)"/>
<defs>
<linearGradient id="paint0_linear_44_4116" x1="15.9988" y1="16.8003" x2="15.9988" y2="28.8003" gradientUnits="userSpaceOnUse">
<stop stop-color="#18EE38"/>
<stop offset="1" stop-color="#CCF221"/>
</linearGradient>
<linearGradient id="paint1_linear_44_4116" x1="6.39922" y1="21.6001" x2="6.39922" y2="28.8001" gradientUnits="userSpaceOnUse">
<stop stop-color="#18EE38"/>
<stop offset="1" stop-color="#CCF221"/>
</linearGradient>
<linearGradient id="paint2_linear_44_4116" x1="25.5984" y1="12" x2="25.5984" y2="28.8" gradientUnits="userSpaceOnUse">
<stop stop-color="#18EE38"/>
<stop offset="1" stop-color="#CCF221"/>
</linearGradient>
<linearGradient id="paint3_linear_44_4116" x1="16.1164" y1="3.2002" x2="16.1164" y2="12.8002" gradientUnits="userSpaceOnUse">
<stop stop-color="#18EE38"/>
<stop offset="1" stop-color="#CCF221"/>
</linearGradient>
</defs>
</svg>
