<svg width="27" height="27" viewBox="0 0 27 27" fill="none" xmlns="http://www.w3.org/2000/svg">
<path d="M13.3327 0C15.9698 0 18.5476 0.781986 20.7403 2.24707C22.9329 3.71216 24.6419 5.79454 25.6511 8.23089C26.6602 10.6672 26.9243 13.3481 26.4098 15.9345C25.8953 18.5209 24.6255 20.8967 22.7608 22.7614C20.8961 24.6261 18.5203 25.896 15.9339 26.4105C13.3475 26.9249 10.6666 26.6609 8.23024 25.6517C5.79389 24.6426 3.71151 22.9336 2.24642 20.7409C0.78134 18.5483 -0.000647227 15.9704 -0.000647227 13.3333C-0.000647227 9.79711 1.40411 6.40573 3.90459 3.90524C6.40508 1.40476 9.79646 0 13.3327 0V0ZM12.2216 13.8144L17.836 17.3333L19.0149 15.4444L14.4438 12.5833V6.66667H12.2216V13.8144Z" fill="url(#paint0_linear_672_461)"/>
<defs>
<linearGradient id="paint0_linear_672_461" x1="13.3327" y1="0" x2="13.3327" y2="26.6667" gradientUnits="userSpaceOnUse">
<stop stop-color="#18EE38"/>
<stop offset="1" stop-color="#CCF221"/>
</linearGradient>
</defs>
</svg>
