<svg viewBox="0 0 32 32" fill="none" xmlns="http://www.w3.org/2000/svg">
<path d="M13.5988 3.2002C13.1188 3.2002 12.7988 3.5202 12.7988 4.0002L12.7988 18.4002C12.7988 18.6402 12.9588 18.8802 13.1188 19.0402L25.0388 27.2002C25.1988 27.2802 25.3588 27.3602 25.5188 27.3602C25.7588 27.3602 25.9988 27.2002 26.1588 27.0402C27.8388 24.4802 28.7988 21.5202 28.7988 18.4002C28.7988 10.0002 21.9988 3.2002 13.5988 3.2002Z" fill="url(#paint0_linear_44_4087)"/>
<path d="M12.2392 20.4003C11.5992 19.9203 11.1992 19.2003 11.1992 18.4003L11.1992 8.32031C6.63922 9.36031 3.19922 13.5203 3.19922 18.4003C3.19922 24.1603 7.83922 28.8003 13.5992 28.8003C16.2392 28.8003 18.7192 27.8403 20.5592 26.0803L12.2392 20.4003Z" fill="url(#paint1_linear_44_4087)"/>
<defs>
<linearGradient id="paint0_linear_44_4087" x1="20.7988" y1="3.2002" x2="20.7988" y2="27.3602" gradientUnits="userSpaceOnUse">
<stop stop-color="#18EE38"/>
<stop offset="1" stop-color="#CCF221"/>
</linearGradient>
<linearGradient id="paint1_linear_44_4087" x1="11.8792" y1="8.32031" x2="11.8792" y2="28.8003" gradientUnits="userSpaceOnUse">
<stop stop-color="#18EE38"/>
<stop offset="1" stop-color="#CCF221"/>
</linearGradient>
</defs>
</svg>
