<svg viewBox="0 0 32 32" fill="none" xmlns="http://www.w3.org/2000/svg">
<path fill-rule="evenodd" clip-rule="evenodd" d="M12.4419 5.07071C13.7592 1.90937 18.2392 1.90937 19.5566 5.07071C19.6189 5.21813 19.7102 5.35152 19.8251 5.46293C19.94 5.57435 20.0761 5.66151 20.2254 5.71923C20.3747 5.77695 20.534 5.80405 20.694 5.79892C20.854 5.79379 21.0113 5.75654 21.1566 5.68937C24.4286 4.17871 27.8206 7.56937 26.3099 10.8427C26.2425 10.988 26.2051 11.1453 26.1999 11.3053C26.1947 11.4653 26.2217 11.6247 26.2795 11.7741C26.3372 11.9234 26.4245 12.0596 26.536 12.1744C26.6475 12.2893 26.781 12.3806 26.9286 12.4427C30.0899 13.76 30.0899 18.24 26.9286 19.5574C26.7811 19.6197 26.6477 19.711 26.5363 19.8259C26.4249 19.9408 26.3378 20.0769 26.28 20.2262C26.2223 20.3755 26.1952 20.5349 26.2003 20.6948C26.2055 20.8548 26.2427 21.0121 26.3099 21.1574C27.8206 24.4294 24.4299 27.82 21.1566 26.3107C21.0114 26.2435 20.8541 26.2062 20.6942 26.201C20.5343 26.1957 20.375 26.2227 20.2257 26.2803C20.0765 26.3379 19.9403 26.4249 19.8253 26.5362C19.7104 26.6475 19.619 26.7807 19.5566 26.928C18.2392 30.0907 13.7592 30.0907 12.4419 26.928C12.3795 26.7807 12.288 26.6475 12.1731 26.5362C12.0581 26.4249 11.922 26.3379 11.7727 26.2803C11.6234 26.2227 11.4641 26.1957 11.3042 26.201C11.1443 26.2062 10.9871 26.2435 10.8419 26.3107C7.56989 27.82 4.17922 24.4307 5.68989 21.1574C5.75705 21.0121 5.79431 20.8548 5.79943 20.6948C5.80456 20.5349 5.77746 20.3755 5.71974 20.2262C5.66202 20.0769 5.57486 19.9408 5.46345 19.8259C5.35203 19.711 5.21865 19.6197 5.07122 19.5574C1.90855 18.24 1.90855 13.76 5.07122 12.4427C5.21877 12.3806 5.35228 12.2893 5.4638 12.1744C5.57531 12.0596 5.66255 11.9234 5.72029 11.7741C5.77803 11.6247 5.80509 11.4653 5.79987 11.3053C5.79465 11.1453 5.75724 10.988 5.68989 10.8427C4.17922 7.57071 7.56989 4.17871 10.8432 5.68937C10.9885 5.75673 11.1458 5.79413 11.3058 5.79936C11.4658 5.80458 11.6253 5.77751 11.7746 5.71977C11.9239 5.66203 12.0601 5.5748 12.175 5.46329C12.2898 5.35177 12.3811 5.21825 12.4432 5.07071H12.4419ZM10.6659 16C10.6659 14.5856 11.2278 13.229 12.228 12.2288C13.2282 11.2286 14.5847 10.6667 15.9992 10.6667C17.4137 10.6667 18.7703 11.2286 19.7705 12.2288C20.7707 13.229 21.3326 14.5856 21.3326 16C21.3326 17.4145 20.7707 18.7711 19.7705 19.7713C18.7703 20.7715 17.4137 21.3334 15.9992 21.3334C14.5847 21.3334 13.2282 20.7715 12.228 19.7713C11.2278 18.7711 10.6659 17.4145 10.6659 16Z" fill="url(#paint0_linear_874_4419)"/>
<path fill-rule="evenodd" clip-rule="evenodd" d="M16.0007 13.3335C15.2934 13.3335 14.6151 13.6144 14.115 14.1145C13.6149 14.6146 13.334 15.2929 13.334 16.0002C13.334 16.7074 13.6149 17.3857 14.115 17.8858C14.6151 18.3859 15.2934 18.6668 16.0007 18.6668C16.7079 18.6668 17.3862 18.3859 17.8863 17.8858C18.3864 17.3857 18.6673 16.7074 18.6673 16.0002C18.6673 15.2929 18.3864 14.6146 17.8863 14.1145C17.3862 13.6144 16.7079 13.3335 16.0007 13.3335Z" fill="url(#paint1_linear_874_4419)"/>
<defs>
<linearGradient id="paint0_linear_874_4419" x1="15.9994" y1="2.69971" x2="15.9994" y2="29.3" gradientUnits="userSpaceOnUse">
<stop stop-color="#18EE38"/>
<stop offset="1" stop-color="#CCF221"/>
</linearGradient>
<linearGradient id="paint1_linear_874_4419" x1="16.0007" y1="13.3335" x2="16.0007" y2="18.6668" gradientUnits="userSpaceOnUse">
<stop stop-color="#18EE38"/>
<stop offset="1" stop-color="#CCF221"/>
</linearGradient>
</defs>
</svg>
